<mxfile host="app.diagrams.net" modified="2023-07-07T19:35:17.837Z" agent="Mozilla/5.0 (Windows NT 10.0; Win64; x64) AppleWebKit/537.36 (KHTML, like Gecko) Chrome/114.0.0.0 Safari/537.36" etag="WGkSDVBdrxIoXHC1EseV" version="21.5.2" type="github">
  <diagram name="Page-1" id="PRxP-_sxwUnaIyaJfIJf">
    <mxGraphModel dx="1434" dy="834" grid="1" gridSize="10" guides="1" tooltips="1" connect="1" arrows="1" fold="1" page="1" pageScale="1" pageWidth="850" pageHeight="1100" math="0" shadow="0">
      <root>
        <mxCell id="0" />
        <mxCell id="1" parent="0" />
        <mxCell id="hFfwVd4J2DqUmOBsOTnL-6" style="edgeStyle=orthogonalEdgeStyle;rounded=0;orthogonalLoop=1;jettySize=auto;html=1;exitX=0.5;exitY=1;exitDx=0;exitDy=0;exitPerimeter=0;entryX=0.5;entryY=0;entryDx=0;entryDy=0;" edge="1" parent="1" source="hFfwVd4J2DqUmOBsOTnL-2" target="hFfwVd4J2DqUmOBsOTnL-8">
          <mxGeometry relative="1" as="geometry" />
        </mxCell>
        <mxCell id="hFfwVd4J2DqUmOBsOTnL-2" value="START" style="strokeWidth=2;html=1;shape=mxgraph.flowchart.start_1;whiteSpace=wrap;" vertex="1" parent="1">
          <mxGeometry x="200" y="80" width="83.33" height="50" as="geometry" />
        </mxCell>
        <mxCell id="hFfwVd4J2DqUmOBsOTnL-19" style="edgeStyle=orthogonalEdgeStyle;rounded=0;orthogonalLoop=1;jettySize=auto;html=1;exitX=0.5;exitY=1;exitDx=0;exitDy=0;exitPerimeter=0;" edge="1" parent="1" source="hFfwVd4J2DqUmOBsOTnL-5" target="hFfwVd4J2DqUmOBsOTnL-18">
          <mxGeometry relative="1" as="geometry" />
        </mxCell>
        <mxCell id="hFfwVd4J2DqUmOBsOTnL-5" value="&lt;br&gt;&lt;span style=&quot;color: rgb(240, 240, 240); font-family: Helvetica; font-size: 12px; font-style: normal; font-variant-ligatures: normal; font-variant-caps: normal; font-weight: 400; letter-spacing: normal; orphans: 2; text-align: center; text-indent: 0px; text-transform: none; widows: 2; word-spacing: 0px; -webkit-text-stroke-width: 0px; background-color: rgb(42, 37, 47); text-decoration-thickness: initial; text-decoration-style: initial; text-decoration-color: initial; float: none; display: inline !important;&quot;&gt;Number&amp;gt; 0 and number &amp;lt;=15?&lt;/span&gt;&lt;br&gt;" style="strokeWidth=2;html=1;shape=mxgraph.flowchart.decision;whiteSpace=wrap;" vertex="1" parent="1">
          <mxGeometry x="186.66" y="440" width="110" height="110" as="geometry" />
        </mxCell>
        <mxCell id="hFfwVd4J2DqUmOBsOTnL-9" style="edgeStyle=orthogonalEdgeStyle;rounded=0;orthogonalLoop=1;jettySize=auto;html=1;exitX=0.5;exitY=1;exitDx=0;exitDy=0;" edge="1" parent="1" source="hFfwVd4J2DqUmOBsOTnL-8" target="hFfwVd4J2DqUmOBsOTnL-5">
          <mxGeometry relative="1" as="geometry" />
        </mxCell>
        <mxCell id="hFfwVd4J2DqUmOBsOTnL-8" value="num=0" style="rounded=1;whiteSpace=wrap;html=1;absoluteArcSize=1;arcSize=14;strokeWidth=2;" vertex="1" parent="1">
          <mxGeometry x="176.66" y="210" width="130" height="50" as="geometry" />
        </mxCell>
        <mxCell id="hFfwVd4J2DqUmOBsOTnL-14" style="edgeStyle=orthogonalEdgeStyle;rounded=0;orthogonalLoop=1;jettySize=auto;html=1;exitX=0.5;exitY=0;exitDx=0;exitDy=0;entryX=0.5;entryY=1;entryDx=0;entryDy=0;" edge="1" parent="1" source="hFfwVd4J2DqUmOBsOTnL-11" target="hFfwVd4J2DqUmOBsOTnL-13">
          <mxGeometry relative="1" as="geometry" />
        </mxCell>
        <mxCell id="hFfwVd4J2DqUmOBsOTnL-11" value="num=num+1" style="rounded=1;whiteSpace=wrap;html=1;absoluteArcSize=1;arcSize=14;strokeWidth=2;" vertex="1" parent="1">
          <mxGeometry x="390" y="470" width="130" height="50" as="geometry" />
        </mxCell>
        <mxCell id="hFfwVd4J2DqUmOBsOTnL-16" style="edgeStyle=orthogonalEdgeStyle;rounded=0;orthogonalLoop=1;jettySize=auto;html=1;exitX=0.5;exitY=0;exitDx=0;exitDy=0;entryX=0.5;entryY=1;entryDx=0;entryDy=0;" edge="1" parent="1" source="hFfwVd4J2DqUmOBsOTnL-13" target="hFfwVd4J2DqUmOBsOTnL-15">
          <mxGeometry relative="1" as="geometry" />
        </mxCell>
        <mxCell id="hFfwVd4J2DqUmOBsOTnL-13" value="square=num*num" style="rounded=1;whiteSpace=wrap;html=1;absoluteArcSize=1;arcSize=14;strokeWidth=2;" vertex="1" parent="1">
          <mxGeometry x="390" y="390" width="130" height="50" as="geometry" />
        </mxCell>
        <mxCell id="hFfwVd4J2DqUmOBsOTnL-17" style="edgeStyle=orthogonalEdgeStyle;rounded=0;orthogonalLoop=1;jettySize=auto;html=1;exitX=0;exitY=0.5;exitDx=0;exitDy=0;" edge="1" parent="1" source="hFfwVd4J2DqUmOBsOTnL-15">
          <mxGeometry relative="1" as="geometry">
            <mxPoint x="240" y="345" as="targetPoint" />
          </mxGeometry>
        </mxCell>
        <mxCell id="hFfwVd4J2DqUmOBsOTnL-15" value="square" style="shape=parallelogram;html=1;strokeWidth=2;perimeter=parallelogramPerimeter;whiteSpace=wrap;rounded=1;arcSize=12;size=0.23;" vertex="1" parent="1">
          <mxGeometry x="346.66999999999996" y="320" width="216.67" height="50" as="geometry" />
        </mxCell>
        <mxCell id="hFfwVd4J2DqUmOBsOTnL-18" value="STOP" style="strokeWidth=2;html=1;shape=mxgraph.flowchart.start_1;whiteSpace=wrap;" vertex="1" parent="1">
          <mxGeometry x="200" y="590" width="83.33" height="50" as="geometry" />
        </mxCell>
      </root>
    </mxGraphModel>
  </diagram>
</mxfile>
